# Made in Blockbench 4.12.5
mtllib projectvirulence.shell.mtl

o bulletModel
v 0.03046875 0.03046875 0.0609375
v 0.03046875 0.03046875 -0.0609375
v 0.03046875 -0.03046875 0.0609375
v 0.03046875 -0.03046875 -0.0609375
v -0.03046875 0.03046875 -0.0609375
v -0.03046875 0.03046875 0.0609375
v -0.03046875 -0.03046875 -0.0609375
v -0.03046875 -0.03046875 0.0609375
vt 4.5625 -2.875
vt 4.6875 -2.875
vt 4.6875 -3
vt 4.5625 -3
vt 1.5 -3.375
vt 1.6875 -3.375
vt 1.6875 -3.5
vt 1.5 -3.5
vt 4.5625 -1.9375
vt 4.6875 -1.9375
vt 4.6875 -2.0625
vt 4.5625 -2.0625
vt 0.75 -3.375
vt 0.9375 -3.375
vt 0.9375 -3.5
vt 0.75 -3.5
vt 1.75 -3.375
vt 1.875 -3.375
vt 1.875 -3.5625
vt 1.75 -3.5625
vt 4.375 -1.0625
vt 4.5 -1.0625
vt 4.5 -0.875
vt 4.375 -0.875
vn 0 0 -1
vn 1 0 0
vn 0 0 1
vn -1 0 0
vn 0 1 0
vn 0 -1 0
usemtl none
f 4/4/1 7/3/1 5/2/1 2/1/1
f 3/8/2 4/7/2 2/6/2 1/5/2
f 8/12/3 3/11/3 1/10/3 6/9/3
f 7/16/4 8/15/4 6/14/4 5/13/4
f 6/20/5 1/19/5 2/18/5 5/17/5
f 7/24/6 4/23/6 3/22/6 8/21/6